<?xml version="1.0" encoding="UTF-8"?>
<svg id="Layer_1" data-name="Layer 1" xmlns="http://www.w3.org/2000/svg" viewBox="0 0 16 16">
  <defs>
    <style>
      .cls-1 {
        fill: #a68af9;
      }

      .cls-2 {
        fill: #0a0a0a;
      }
    </style>
  </defs>
  <rect class="cls-1" width="16" height="16"/>
  <g>
    <path class="cls-2" d="M7.95,9.15c-.73-.01-1.4-.14-1.98-.35-1.06.96.74,1.12,1.43,1.06.98-.09,2.96-.68,3.7-.39.54.21.74.83.36,2.24h-2.88c.59-.8.56-1.18.23-1.15-.64.07-2.26,1.28-3.54,1.28-2.07,0-1.62-2.27-.13-3.44-.72-.45-1.15-1.07-1.15-1.75,0-1.35,1.72-2.46,3.96-2.49,1.15.02,2.17.32,2.88.79.38-.38.82-.75,1.3-.8v1.27c-.32-.23-.58-.2-.79-.06.36.38.57.81.57,1.28,0,1.35-1.72,2.46-3.96,2.49ZM6.33,5.89c-.1.24-.11.5-.04.76.12.58.64,1.09,1.22,1.34.14.06.29.11.44.14.67.14,1.35-.05,1.62-.73.1-.24.11-.5.04-.76-.12-.58-.64-1.09-1.22-1.34-.14-.06-.29-.11-.44-.14-.67-.14-1.35.05-1.62.73ZM9.89,8.31h-4v-3.44h4v3.44Z"/>
    <rect class="cls-1" x="6.52" y="5.22" width="2.87" height="2.87"/>
  </g>
</svg>